<svg xmlns="http://www.w3.org/2000/svg" viewBox="0 0 512 512" role="img" aria-labelledby="title desc">
    <title id="title">CV HRIS Internal Employee CV Icon</title>
    <desc id="desc">A teal app icon showing an employee CV document, internal identity badge, and verification check.</desc>
    <defs>
        <linearGradient id="bg" x1="86" y1="52" x2="426" y2="462" gradientUnits="userSpaceOnUse">
            <stop offset="0" stop-color="#0f766e"/>
            <stop offset="1" stop-color="#115e59"/>
        </linearGradient>
        <linearGradient id="paper" x1="154" y1="92" x2="346" y2="405" gradientUnits="userSpaceOnUse">
            <stop offset="0" stop-color="#ffffff"/>
            <stop offset="1" stop-color="#f8fafc"/>
        </linearGradient>
        <filter id="shadow" x="-20%" y="-20%" width="140%" height="150%" color-interpolation-filters="sRGB">
            <feDropShadow dx="0" dy="18" stdDeviation="20" flood-color="#0f172a" flood-opacity=".18"/>
        </filter>
    </defs>

    <rect width="512" height="512" rx="112" fill="url(#bg)"/>
    <path d="M86 396c68 30 136 45 204 45 52 0 98-9 136-26v40c0 31-25 56-56 56H142c-31 0-56-25-56-56v-59z" fill="#0f172a" opacity=".08"/>

    <g filter="url(#shadow)">
        <path d="M154 76h151l74 74v246c0 23-19 42-42 42H154c-23 0-42-19-42-42V118c0-23 19-42 42-42z" fill="url(#paper)"/>
        <path d="M305 76v58c0 17 14 31 31 31h43l-74-89z" fill="#d1fae5"/>
        <path d="M305 76v58c0 17 14 31 31 31h43" fill="none" stroke="#99f6e4" stroke-width="10" stroke-linecap="round" stroke-linejoin="round"/>
    </g>

    <rect x="154" y="196" width="186" height="20" rx="10" fill="#0f766e"/>
    <rect x="154" y="235" width="132" height="16" rx="8" fill="#94a3b8"/>
    <rect x="154" y="268" width="172" height="16" rx="8" fill="#cbd5e1"/>
    <rect x="154" y="301" width="120" height="16" rx="8" fill="#cbd5e1"/>

    <g>
        <rect x="146" y="332" width="220" height="74" rx="22" fill="#ecfdf5" stroke="#99f6e4" stroke-width="8"/>
        <circle cx="184" cy="369" r="19" fill="#0f766e"/>
        <path d="M158 398c6-19 15-28 26-28s20 9 26 28" fill="#0f766e"/>
        <rect x="229" y="356" width="95" height="13" rx="6.5" fill="#0f766e"/>
        <rect x="229" y="381" width="67" height="11" rx="5.5" fill="#94a3b8"/>
    </g>

    <g>
        <circle cx="360" cy="350" r="58" fill="#16a34a" stroke="#ffffff" stroke-width="14"/>
        <path d="M334 350l17 17 38-42" fill="none" stroke="#ffffff" stroke-width="16" stroke-linecap="round" stroke-linejoin="round"/>
    </g>

    <text x="154" y="157" fill="#0f172a" font-family="Arial, Helvetica, sans-serif" font-size="52" font-weight="800" letter-spacing="-1">CV</text>
</svg>
